<?xml version="1.0" encoding="UTF-8" standalone="no"?>
<!DOCTYPE svg PUBLIC "-//W3C//DTD SVG 1.1//EN" "http://www.w3.org/Graphics/SVG/1.1/DTD/svg11.dtd">
<svg xmlns="http://www.w3.org/2000/svg" version="1.1" viewBox="0.00 0.00 2369.00 884.00">
<g stroke-width="5.00" fill="none" stroke-linecap="butt">
<path stroke="#808080" vector-effect="non-scaling-stroke" d="
  M 173.84 285.25
  A 0.60 0.60 0.0 0 0 174.69 284.97
  L 214.17 194.88
  A 0.60 0.60 0.0 0 0 213.26 194.16
  L 128.94 257.86
  A 0.60 0.60 0.0 0 0 128.99 258.86
  L 173.84 285.25"
/>
<path stroke="#808080" vector-effect="non-scaling-stroke" d="
  M 217.62 197.48
  L 177.82 288.47
  Q 177.65 288.85 178.00 289.06
  C 182.52 291.78 186.91 296.44 189.79 298.89
  Q 196.36 304.50 202.77 310.29
  C 211.64 318.29 220.78 326.00 229.58 334.09
  C 232.14 336.43 235.56 338.90 238.34 341.63
  C 242.19 345.41 246.29 348.27 250.04 351.97
  C 254.24 356.12 259.05 359.33 262.91 363.91
  A 0.41 0.41 0.0 0 0 263.62 363.54
  Q 241.90 282.19 220.24 201.64
  C 219.93 200.50 219.99 198.01 218.91 197.16
  A 0.84 0.84 0.0 0 0 217.62 197.48"
/>
<path stroke="#808080" vector-effect="non-scaling-stroke" d="
  M 169.18 287.95
  Q 170.14 287.48 169.21 286.93
  L 127.71 262.47
  A 1.02 1.02 0.0 0 0 126.22 263.03
  L 116.07 294.71
  Q 115.61 296.15 117.10 295.91
  C 118.37 295.72 119.63 295.84 120.96 295.42
  Q 124.77 294.21 128.78 294.43
  C 131.07 294.56 132.50 293.14 135.16 293.29
  C 138.55 293.48 141.21 292.17 144.46 292.07
  Q 147.18 291.98 149.81 291.34
  C 152.83 290.61 155.73 290.81 158.75 290.03
  C 162.50 289.05 165.32 289.84 169.18 287.95"
/>
<path stroke="#808080" vector-effect="non-scaling-stroke" d="
  M 121.43 299.84
  L 256.75 363.94
  A 0.25 0.24 76.6 0 0 256.99 363.52
  L 175.39 291.49
  Q 175.00 291.15 174.50 291.27
  C 171.16 292.09 167.43 292.15 164.45 292.70
  Q 157.69 293.94 150.85 294.55
  C 148.02 294.80 144.91 296.11 141.48 295.76
  C 139.92 295.61 139.01 296.09 137.65 296.58
  C 135.09 297.51 132.36 296.75 129.59 297.54
  C 126.59 298.40 124.71 298.34 121.88 298.12
  A 0.91 0.90 59.7 0 0 121.43 299.84"
/>
<path stroke="#808080" vector-effect="non-scaling-stroke" d="
  M 255.67 367.57
  L 120.92 303.73
  A 0.19 0.19 0.0 0 0 120.72 304.05
  L 202.50 367.95
  Q 202.93 368.29 203.48 368.29
  L 255.51 368.25
  A 0.36 0.36 0.0 0 0 255.67 367.57"
/>
</g>
<path fill="#ffffff" d="
  M 81.21 626.98
  Q 81.26 626.85 81.15 626.73
  Q 81.02 626.59 81.02 626.40
  Q 81.01 408.95 81.01 191.50
  Q 81.01 182.31 81.45 168.20
  Q 81.47 167.57 82.09 167.57
  L 291.62 167.58
  A 1.17 1.17 0.0 0 1 292.79 168.75
  L 292.77 634.50
  A 0.52 0.52 0.0 0 1 292.25 635.02
  L 81.97 635.02
  Q 81.38 635.02 81.33 634.44
  Q 81.00 630.66 81.20 627.03
  Q 81.20 627.00 81.21 626.98
  Z
  M 173.84 285.25
  A 0.60 0.60 0.0 0 0 174.69 284.97
  L 214.17 194.88
  A 0.60 0.60 0.0 0 0 213.26 194.16
  L 128.94 257.86
  A 0.60 0.60 0.0 0 0 128.99 258.86
  L 173.84 285.25
  Z
  M 217.62 197.48
  L 177.82 288.47
  Q 177.65 288.85 178.00 289.06
  C 182.52 291.78 186.91 296.44 189.79 298.89
  Q 196.36 304.50 202.77 310.29
  C 211.64 318.29 220.78 326.00 229.58 334.09
  C 232.14 336.43 235.56 338.90 238.34 341.63
  C 242.19 345.41 246.29 348.27 250.04 351.97
  C 254.24 356.12 259.05 359.33 262.91 363.91
  A 0.41 0.41 0.0 0 0 263.62 363.54
  Q 241.90 282.19 220.24 201.64
  C 219.93 200.50 219.99 198.01 218.91 197.16
  A 0.84 0.84 0.0 0 0 217.62 197.48
  Z
  M 169.18 287.95
  Q 170.14 287.48 169.21 286.93
  L 127.71 262.47
  A 1.02 1.02 0.0 0 0 126.22 263.03
  L 116.07 294.71
  Q 115.61 296.15 117.10 295.91
  C 118.37 295.72 119.63 295.84 120.96 295.42
  Q 124.77 294.21 128.78 294.43
  C 131.07 294.56 132.50 293.14 135.16 293.29
  C 138.55 293.48 141.21 292.17 144.46 292.07
  Q 147.18 291.98 149.81 291.34
  C 152.83 290.61 155.73 290.81 158.75 290.03
  C 162.50 289.05 165.32 289.84 169.18 287.95
  Z
  M 121.43 299.84
  L 256.75 363.94
  A 0.25 0.24 76.6 0 0 256.99 363.52
  L 175.39 291.49
  Q 175.00 291.15 174.50 291.27
  C 171.16 292.09 167.43 292.15 164.45 292.70
  Q 157.69 293.94 150.85 294.55
  C 148.02 294.80 144.91 296.11 141.48 295.76
  C 139.92 295.61 139.01 296.09 137.65 296.58
  C 135.09 297.51 132.36 296.75 129.59 297.54
  C 126.59 298.40 124.71 298.34 121.88 298.12
  A 0.91 0.90 59.7 0 0 121.43 299.84
  Z
  M 255.67 367.57
  L 120.92 303.73
  A 0.19 0.19 0.0 0 0 120.72 304.05
  L 202.50 367.95
  Q 202.93 368.29 203.48 368.29
  L 255.51 368.25
  A 0.36 0.36 0.0 0 0 255.67 367.57
  Z"
/>
<path fill="#ffffff" d="
  M 552.93 303.70
  C 555.14 305.24 557.95 306.60 559.79 308.06
  Q 571.03 317.02 575.81 331.73
  C 582.07 351.01 586.87 371.80 598.39 388.66
  Q 598.86 389.36 598.02 389.36
  L 519.30 389.38
  A 2.19 2.18 -17.0 0 1 517.49 388.42
  C 508.47 375.20 505.15 359.49 500.40 344.07
  Q 497.17 333.61 494.33 330.05
  C 488.56 322.85 478.43 320.35 469.74 320.19
  Q 447.88 319.77 426.88 319.87
  Q 425.52 319.88 425.52 321.24
  L 425.50 388.82
  A 0.57 0.57 0.0 0 1 424.93 389.39
  L 349.79 389.35
  A 0.32 0.31 0.0 0 1 349.47 389.04
  L 349.48 175.27
  A 0.41 0.40 0.0 0 1 349.89 174.87
  Q 422.48 174.66 495.25 174.87
  C 512.72 174.92 527.97 176.55 543.62 181.63
  C 570.82 190.45 589.92 211.71 591.00 240.90
  Q 591.04 242.08 591.16 251.60
  C 591.50 278.92 576.63 292.99 553.01 302.99
  Q 552.32 303.28 552.93 303.70
  Z
  M 425.65 226.68
  L 425.71 265.36
  A 1.12 1.12 0.0 0 0 426.84 266.47
  L 493.16 266.36
  A 20.68 17.66 -0.1 0 0 513.80 248.66
  L 513.80 243.06
  A 20.68 17.66 -0.1 0 0 493.08 225.44
  L 426.76 225.55
  A 1.12 1.12 0.0 0 0 425.65 226.68
  Z"
/>
<path fill="#ffffff" d="
  M 700.50 352.77
  L 686.32 389.11
  A 0.42 0.42 0.0 0 1 685.93 389.38
  L 608.33 389.35
  A 0.42 0.42 0.0 0 1 607.94 388.76
  L 702.76 175.03
  A 0.42 0.42 0.0 0 1 703.14 174.78
  L 800.22 174.78
  A 0.42 0.42 0.0 0 1 800.60 175.03
  L 895.47 388.77
  A 0.42 0.42 0.0 0 1 895.08 389.36
  L 817.47 389.37
  A 0.42 0.42 0.0 0 1 817.08 389.10
  L 802.87 352.76
  A 0.42 0.42 0.0 0 0 802.48 352.49
  L 700.89 352.50
  A 0.42 0.42 0.0 0 0 700.50 352.77
  Z
  M 755.08 229.49
  C 754.33 227.54 751.82 227.28 750.26 228.04
  Q 749.07 228.62 748.35 230.44
  Q 734.52 265.69 720.79 300.80
  A 0.49 0.49 0.0 0 0 721.25 301.46
  L 781.98 301.47
  Q 783.02 301.47 782.64 300.50
  Q 768.94 265.29 755.08 229.49
  Z"
/>
<path fill="#ffffff" d="
  M 1036.35 241.40
  L 1078.38 174.91
  A 0.31 0.31 0.0 0 1 1078.64 174.77
  L 1165.22 174.79
  A 0.31 0.31 0.0 0 1 1165.47 175.29
  L 1085.75 280.88
  A 0.31 0.31 0.0 0 0 1085.75 281.26
  L 1172.79 388.86
  A 0.31 0.31 0.0 0 1 1172.55 389.36
  L 1086.01 389.38
  A 0.31 0.31 0.0 0 1 1085.76 389.25
  L 1035.92 321.97
  A 0.31 0.31 0.0 0 0 1035.42 321.97
  L 986.15 389.25
  A 0.31 0.31 0.0 0 1 985.90 389.38
  L 899.09 389.36
  A 0.31 0.31 0.0 0 1 898.85 388.85
  L 986.23 281.56
  A 0.31 0.31 0.0 0 0 986.23 281.18
  L 906.20 175.30
  A 0.31 0.31 0.0 0 1 906.44 174.80
  L 993.12 174.77
  A 0.31 0.31 0.0 0 1 993.38 174.91
  L 1035.83 241.40
  A 0.31 0.31 0.0 0 0 1036.35 241.40
  Z"
/>
<path fill="#000000" d="
  M 173.84 285.25
  L 128.99 258.86
  A 0.60 0.60 0.0 0 1 128.94 257.86
  L 213.26 194.16
  A 0.60 0.60 0.0 0 1 214.17 194.88
  L 174.69 284.97
  A 0.60 0.60 0.0 0 1 173.84 285.25
  Z"
/>
<path fill="#000000" d="
  M 177.82 288.47
  L 217.62 197.48
  A 0.84 0.84 0.0 0 1 218.91 197.16
  C 219.99 198.01 219.93 200.50 220.24 201.64
  Q 241.90 282.19 263.62 363.54
  A 0.41 0.41 0.0 0 1 262.91 363.91
  C 259.05 359.33 254.24 356.12 250.04 351.97
  C 246.29 348.27 242.19 345.41 238.34 341.63
  C 235.56 338.90 232.14 336.43 229.58 334.09
  C 220.78 326.00 211.64 318.29 202.77 310.29
  Q 196.36 304.50 189.79 298.89
  C 186.91 296.44 182.52 291.78 178.00 289.06
  Q 177.65 288.85 177.82 288.47
  Z"
/>
<path fill="#000000" d="
  M 169.18 287.95
  C 165.32 289.84 162.50 289.05 158.75 290.03
  C 155.73 290.81 152.83 290.61 149.81 291.34
  Q 147.18 291.98 144.46 292.07
  C 141.21 292.17 138.55 293.48 135.16 293.29
  C 132.50 293.14 131.07 294.56 128.78 294.43
  Q 124.77 294.21 120.96 295.42
  C 119.63 295.84 118.37 295.72 117.10 295.91
  Q 115.61 296.15 116.07 294.71
  L 126.22 263.03
  A 1.02 1.02 0.0 0 1 127.71 262.47
  L 169.21 286.93
  Q 170.14 287.48 169.18 287.95
  Z"
/>
<path fill="#000000" d="
  M 256.75 363.94
  L 121.43 299.84
  A 0.91 0.90 59.7 0 1 121.88 298.12
  C 124.71 298.34 126.59 298.40 129.59 297.54
  C 132.36 296.75 135.09 297.51 137.65 296.58
  C 139.01 296.09 139.92 295.61 141.48 295.76
  C 144.91 296.11 148.02 294.80 150.85 294.55
  Q 157.69 293.94 164.45 292.70
  C 167.43 292.15 171.16 292.09 174.50 291.27
  Q 175.00 291.15 175.39 291.49
  L 256.99 363.52
  A 0.25 0.24 76.6 0 1 256.75 363.94
  Z"
/>
<path fill="#000000" d="
  M 120.92 303.73
  L 255.67 367.57
  A 0.36 0.36 0.0 0 1 255.51 368.25
  L 203.48 368.29
  Q 202.93 368.29 202.50 367.95
  L 120.72 304.05
  A 0.19 0.19 0.0 0 1 120.92 303.73
  Z"
/>
<path fill="#ffffff" d="
  M 642.70 600.40
  L 628.81 636.23
  A 0.43 0.43 0.0 0 1 628.41 636.50
  L 550.83 636.49
  A 0.43 0.43 0.0 0 1 550.44 635.89
  L 644.99 422.70
  A 0.43 0.43 0.0 0 1 645.38 422.44
  L 742.51 422.44
  A 0.43 0.43 0.0 0 1 742.90 422.70
  L 837.46 635.90
  A 0.43 0.43 0.0 0 1 837.07 636.50
  L 759.53 636.50
  A 0.43 0.43 0.0 0 1 759.13 636.23
  L 745.16 600.38
  A 0.43 0.43 0.0 0 0 744.76 600.11
  L 643.10 600.13
  A 0.43 0.43 0.0 0 0 642.70 600.40
  Z
  M 690.80 477.49
  C 681.54 501.12 672.34 524.77 663.00 548.37
  A 0.55 0.54 10.6 0 0 663.51 549.11
  L 724.51 549.13
  Q 725.34 549.13 725.04 548.35
  L 696.98 476.47
  Q 696.82 476.05 696.41 475.86
  Q 692.22 473.86 690.80 477.49
  Z"
/>
<path fill="#ffffff" d="
  M 541.52 584.47
  L 541.54 635.77
  A 0.73 0.73 0.0 0 1 540.81 636.50
  L 350.05 636.50
  A 0.73 0.73 0.0 0 1 349.32 635.77
  L 349.35 423.28
  A 0.73 0.73 0.0 0 1 350.08 422.55
  L 424.93 422.47
  A 0.73 0.73 0.0 0 1 425.66 423.20
  L 425.69 582.92
  A 0.73 0.73 0.0 0 0 426.42 583.65
  L 540.79 583.74
  A 0.73 0.73 0.0 0 1 541.52 584.47
  Z"
/>
<path fill="#ffffff" d="
  M 1048.55 522.26
  C 1070.75 525.23 1095.46 537.19 1100.50 561.24
  C 1102.11 568.93 1102.06 579.26 1101.22 586.92
  C 1096.49 630.03 1047.51 636.74 1013.25 636.68
  Q 936.00 636.53 858.91 636.45
  Q 858.21 636.45 858.21 635.75
  L 858.20 423.01
  Q 858.20 422.52 858.69 422.52
  Q 937.93 422.40 1016.98 422.47
  Q 1035.78 422.48 1053.53 427.91
  C 1073.90 434.14 1089.49 446.60 1092.12 468.99
  Q 1093.52 480.89 1091.05 492.01
  C 1086.54 512.28 1066.41 518.44 1048.54 521.91
  Q 1047.48 522.11 1048.55 522.26
  Z
  M 934.45 471.59
  L 934.55 500.29
  A 1.34 1.34 0.0 0 0 935.90 501.63
  L 998.71 501.41
  A 16.58 14.18 -0.2 0 0 1015.25 487.17
  L 1015.23 484.15
  A 16.58 14.18 -0.2 0 0 998.61 470.03
  L 935.79 470.25
  A 1.34 1.34 0.0 0 0 934.45 471.59
  Z
  M 934.54 550.59
  L 934.48 583.77
  A 1.02 1.02 0.0 0 0 935.50 584.79
  L 1003.92 584.91
  A 20.56 15.08 0.1 0 0 1024.51 569.87
  L 1024.51 564.81
  A 20.56 15.08 0.1 0 0 1003.98 549.69
  L 935.56 549.57
  A 1.02 1.02 0.0 0 0 934.54 550.59
  Z"
/>
<path fill="#ffffff" d="
  M 1209.34 583.38
  Q 1211.03 583.66 1212.75 583.66
  Q 1270.75 583.56 1328.75 583.63
  Q 1336.07 583.63 1343.37 584.05
  Q 1343.95 584.09 1343.95 584.66
  L 1344.01 635.37
  A 1.12 1.11 -0.3 0 1 1342.89 636.49
  L 1134.30 636.50
  Q 1133.10 636.50 1133.10 635.30
  L 1133.10 422.94
  Q 1133.10 422.47 1133.56 422.47
  L 1342.50 422.48
  A 0.52 0.52 0.0 0 1 1343.02 423.00
  L 1343.01 474.80
  Q 1343.01 475.86 1341.95 475.86
  L 1209.20 475.89
  A 0.67 0.67 0.0 0 0 1208.53 476.55
  L 1208.51 500.47
  Q 1208.51 502.14 1210.16 502.36
  Q 1212.63 502.70 1216.00 502.70
  Q 1271.29 502.60 1326.57 502.79
  A 1.02 1.02 0.0 0 1 1327.59 503.81
  L 1327.56 555.22
  A 0.79 0.78 -89.6 0 1 1326.78 556.00
  L 1209.14 556.00
  Q 1208.52 556.00 1208.52 556.61
  L 1208.56 582.45
  Q 1208.56 583.25 1209.34 583.38
  Z"
/>
<path fill="#ffffff" d="
  M 1458.56 583.28
  Q 1461.05 583.72 1464.75 583.71
  Q 1518.37 583.62 1571.30 583.77
  Q 1572.30 583.77 1572.30 584.77
  L 1572.25 636.00
  Q 1572.25 636.50 1571.75 636.50
  L 1381.49 636.50
  Q 1380.48 636.50 1380.48 635.49
  L 1380.51 423.16
  Q 1380.51 422.58 1381.09 422.58
  L 1456.10 422.47
  A 0.76 0.75 -0.0 0 1 1456.86 423.22
  L 1456.88 581.28
  Q 1456.88 582.98 1458.56 583.28
  Z"
/>
</svg>
