<svg xmlns="http://www.w3.org/2000/svg" width="1024" height="1024" viewBox="0 0 1024 1024">
<g>
<path d="M 703.00,714.20 L 702.66,713.97 L 701.75,713.28 L 701.28,712.90 L 700.21,712.01 L 697.00,709.14 L 696.52,708.68 L 695.31,707.60 L 694.67,707.05 L 693.28,705.90 L 692.58,705.33 L 691.18,704.25 L 689.25,702.84 L 688.08,702.03 L 685.44,700.01 L 684.80,699.51 L 683.65,698.56 L 682.25,697.33 L 681.68,696.80 L 680.08,695.43 L 679.20,694.69 L 676.85,692.80 L 676.21,692.29 L 674.76,691.15 L 674.00,690.55 L 672.30,689.23 L 671.41,688.55 L 669.44,687.04 L 666.15,684.53 L 665.97,684.38 L 665.26,683.80 L 664.87,683.47 L 663.84,682.59 L 660.15,679.39 L 659.51,678.82 L 657.99,677.57 L 657.21,676.94 L 655.55,675.66 L 654.72,675.04 L 653.11,673.89 L 651.00,672.48 L 649.76,671.71 L 647.44,669.96 L 646.91,669.54 L 646.05,668.78 L 645.19,667.84 L 645.01,667.59 L 644.23,666.81 L 643.79,666.38 L 642.60,665.36 L 638.19,661.99 L 636.86,661.05 L 633.91,658.87 L 632.40,657.75 L 629.25,655.32 L 620.00,647.82 L 619.66,647.53 L 618.60,646.68 L 618.02,646.22 L 616.62,645.14 L 612.00,641.66 L 610.49,640.55 L 607.73,638.28 L 607.11,637.74 L 606.13,636.83 L 605.19,635.81 L 604.83,635.31 L 603.41,634.08 L 600.96,632.48 L 600.56,632.27 L 599.34,631.46 L 598.68,631.00 L 597.09,629.80 L 591.90,625.49 L 591.05,624.73 L 589.42,623.35 L 588.63,622.70 L 587.22,621.60 L 586.56,621.10 L 585.55,620.41 L 584.62,619.97 L 584.47,619.96 L 583.84,619.61 L 583.48,619.38 L 582.54,618.66 L 582.04,618.26 L 580.90,617.26 L 579.11,615.56 L 577.90,614.36 L 575.24,612.08 L 574.61,611.56 L 573.47,610.71 L 572.12,609.84 L 571.40,609.47 L 569.60,608.17 L 567.19,606.04 L 566.87,605.70 L 565.91,604.80 L 565.39,604.32 L 564.14,603.26 L 560.07,600.04 L 559.23,599.42 L 557.31,597.97 L 556.32,597.21 L 554.20,595.57 L 552.05,593.89 L 547.67,590.39 L 546.61,589.54 L 544.63,587.92 L 543.68,587.14 L 542.00,585.73 L 541.21,585.07 L 539.95,583.97 L 538.68,582.80 L 538.43,582.54 L 537.69,581.89 L 537.28,581.55 L 536.32,580.78 L 533.18,578.55 L 532.68,578.22 L 531.44,577.34 L 530.80,576.87 L 529.43,575.81 L 525.57,572.58 L 524.49,571.60 L 522.44,570.05 L 521.98,569.73 L 521.22,569.28 L 520.44,569.00 L 520.11,569.00 L 519.23,568.56 L 518.00,567.50 L 517.82,567.28 L 517.21,566.90 L 516.87,566.72 L 516.00,566.43 L 512.84,566.00 L 511.84,566.00 L 509.98,566.30 L 509.05,566.50 L 507.18,567.29 L 506.21,567.75 L 504.11,569.12 L 500.46,571.96 L 500.05,572.31 L 498.98,573.18 L 498.42,573.64 L 497.18,574.63 L 493.54,577.50 L 493.01,577.91 L 491.60,579.03 L 490.85,579.62 L 489.16,580.96 L 484.08,585.07 L 482.55,586.33 L 479.26,588.86 L 478.48,589.45 L 477.11,590.45 L 475.50,591.56 L 474.67,592.09 L 472.65,593.58 L 470.00,595.73 L 468.84,596.77 L 466.65,598.63 L 465.60,599.51 L 463.75,600.93 L 462.88,601.58 L 461.53,602.45 L 460.26,603.00 L 460.12,603.00 L 459.70,603.24 L 459.47,603.39 L 458.90,603.88 L 457.00,606.00 L 456.37,606.82 L 455.09,608.12 L 454.79,608.39 L 454.28,608.76 L 453.71,609.00 L 453.58,609.00 L 452.84,609.42 L 452.42,609.69 L 451.22,610.57 L 450.57,611.05 L 449.06,612.27 L 446.61,614.35 L 444.93,615.82 L 441.07,618.89 L 440.14,619.61 L 438.43,620.87 L 436.33,622.30 L 435.19,623.02 L 433.20,624.46 L 432.76,624.80 L 432.10,625.36 L 431.51,625.98 L 431.42,626.13 L 430.81,626.72 L 430.44,627.05 L 429.38,627.94 L 428.81,628.41 L 427.43,629.48 L 425.18,631.16 L 423.62,632.29 L 420.87,634.40 L 420.27,634.88 L 419.34,635.66 L 418.50,636.44 L 418.36,636.60 L 417.68,637.22 L 417.28,637.56 L 416.18,638.46 L 412.00,641.66 L 410.49,642.77 L 407.38,645.13 L 406.66,645.69 L 405.40,646.67 L 404.00,647.80 L 403.66,648.09 L 402.47,649.10 L 401.80,649.66 L 400.13,651.07 L 394.35,655.95 L 393.37,656.79 L 391.51,658.30 L 390.61,659.03 L 389.05,660.23 L 388.33,660.78 L 387.25,661.53 L 386.35,662.01 L 386.24,662.01 L 385.55,662.44 L 385.14,662.72 L 383.99,663.63 L 383.37,664.13 L 381.91,665.38 L 379.52,667.51 L 378.70,668.26 L 377.12,669.64 L 376.35,670.30 L 374.99,671.39 L 374.36,671.88 L 373.38,672.57 L 372.50,673.00 L 372.36,673.00 L 371.67,673.39 L 371.27,673.65 L 370.17,674.47 L 369.58,674.92 L 368.20,676.06 L 366.00,678.00 L 365.25,678.69 L 363.82,679.94 L 363.13,680.54 L 361.92,681.53 L 361.36,681.98 L 360.52,682.61 L 359.80,683.00 L 359.70,683.00 L 359.28,683.23 L 359.03,683.39 L 358.39,683.87 L 356.03,685.98 L 355.61,686.38 L 354.39,687.46 L 353.74,688.03 L 352.19,689.32 L 347.24,693.17 L 345.66,694.33 L 342.89,696.50 L 342.28,696.99 L 341.34,697.78 L 340.50,698.58 L 340.36,698.74 L 339.68,699.34 L 339.28,699.67 L 338.18,700.53 L 334.00,703.54 L 332.49,704.58 L 329.38,706.92 L 328.66,707.49 L 327.40,708.52 L 326.00,709.77 L 325.42,710.34 L 324.06,711.39 L 323.36,711.90 L 321.90,712.74 L 321.17,713.13 L 319.80,713.66 L 318.05,714.00 L 317.99,714.00 L 317.70,713.77 L 317.53,713.62 L 317.02,713.11 L 316.74,712.82 L 316.05,712.07 L 315.68,711.66 L 314.83,710.69 L 313.95,709.66 L 311.81,707.10 L 308.26,702.72 L 307.03,701.17 L 304.67,698.22 L 303.53,696.80 L 301.52,694.31 L 301.05,693.73 L 300.21,692.71 L 299.82,692.23 L 299.15,691.41 L 298.84,691.04 L 298.36,690.47 L 297.90,689.94 L 297.64,689.67 L 296.96,688.84 L 296.61,688.39 L 295.79,687.30 L 294.95,686.16 L 293.17,683.57 L 292.32,682.29 L 290.94,680.08 L 290.65,679.60 L 290.25,678.86 L 290.00,678.19 L 290.00,677.98 L 290.59,677.18 L 290.96,676.74 L 291.97,675.77 L 292.49,675.30 L 293.53,674.53 L 294.66,674.00 L 294.73,674.00 L 295.18,673.75 L 295.44,673.58 L 296.19,673.06 L 297.01,672.48 L 299.18,670.80 L 300.29,669.92 L 302.54,668.06 L 303.08,667.60 L 304.04,666.77 L 305.23,665.67 L 305.40,665.50 L 306.00,665.00 L 306.33,664.73 L 307.15,664.09 L 310.00,662.02 L 310.96,661.35 L 312.62,660.14 L 312.98,659.87 L 313.53,659.44 L 314.00,659.02 L 314.07,658.94 L 314.55,658.53 L 314.84,658.28 L 315.67,657.60 L 319.00,655.00 L 320.24,654.05 L 322.33,652.40 L 322.78,652.03 L 323.45,651.47 L 324.00,650.98 L 324.07,650.90 L 324.67,650.39 L 325.03,650.09 L 326.12,649.23 L 326.70,648.76 L 328.13,647.65 L 330.50,645.82 L 332.15,644.56 L 335.49,641.89 L 336.26,641.26 L 337.59,640.15 L 339.05,638.87 L 339.40,638.54 L 340.49,637.62 L 341.08,637.12 L 342.50,635.96 L 347.21,632.29 L 348.76,631.13 L 352.01,628.53 L 352.77,627.90 L 354.12,626.78 L 355.66,625.41 L 356.44,624.68 L 358.69,622.87 L 362.00,620.48 L 362.48,620.17 L 363.64,619.35 L 364.23,618.92 L 365.50,617.94 L 369.00,615.00 L 369.96,614.12 L 372.21,612.25 L 372.75,611.81 L 373.75,611.04 L 375.00,610.15 L 375.17,610.04 L 375.70,609.66 L 376.00,609.45 L 376.74,608.89 L 377.54,608.29 L 379.65,606.65 L 380.76,605.77 L 383.30,603.75 L 387.31,600.51 L 388.66,599.41 L 391.31,597.27 L 392.60,596.24 L 394.95,594.39 L 396.06,593.52 L 397.84,592.16 L 398.23,591.86 L 398.87,591.39 L 399.56,590.91 L 399.90,590.69 L 400.90,589.93 L 401.44,589.50 L 402.74,588.42 L 406.93,584.66 L 407.61,584.02 L 408.91,582.85 L 409.54,582.29 L 410.65,581.37 L 411.18,580.95 L 411.98,580.37 L 412.69,580.00 L 412.80,580.00 L 413.61,579.51 L 414.09,579.19 L 415.50,578.16 L 416.26,577.60 L 418.09,576.18 L 421.09,573.75 L 423.17,572.03 L 427.58,568.45 L 428.61,567.62 L 430.44,566.16 L 432.54,564.50 L 433.61,563.67 L 436.22,561.57 L 436.86,561.05 L 438.06,560.05 L 439.60,558.75 L 440.47,557.99 L 442.03,556.81 L 442.38,556.56 L 442.92,556.22 L 443.43,556.00 L 443.52,556.00 L 443.86,555.81 L 444.05,555.70 L 444.55,555.31 L 446.30,553.65 L 446.90,553.01 L 448.56,551.62 L 450.89,550.04 L 451.22,549.87 L 452.18,549.22 L 452.69,548.86 L 453.90,547.94 L 457.75,544.66 L 458.37,544.10 L 459.85,542.82 L 460.62,542.18 L 462.27,540.86 L 463.09,540.22 L 464.70,539.01 L 466.86,537.51 L 467.80,536.89 L 469.18,535.87 L 469.79,535.38 L 470.60,534.49 L 470.94,534.05 L 471.31,533.13 L 471.50,531.53 L 471.50,530.96 L 471.33,530.00 L 471.21,529.54 L 470.76,528.72 L 470.49,528.31 L 469.68,527.53 L 468.00,526.28 L 467.62,526.02 L 466.65,525.33 L 466.13,524.95 L 464.96,524.06 L 463.74,523.12 L 460.98,520.87 L 459.59,519.72 L 456.87,517.38 L 453.44,514.25 L 453.08,513.91 L 452.27,513.37 L 451.28,513.00 L 451.16,513.00 L 450.47,512.57 L 450.07,512.29 L 448.92,511.38 L 448.30,510.89 L 446.84,509.64 L 444.46,507.50 L 443.64,506.74 L 442.10,505.36 L 441.35,504.71 L 440.07,503.62 L 439.48,503.12 L 438.60,502.43 L 437.90,502.00 L 437.82,502.00 L 437.50,501.85 L 437.31,501.75 L 436.83,501.44 L 435.10,500.09 L 433.83,498.98 L 431.12,496.72 L 429.71,495.55 L 426.41,492.92 L 425.53,492.23 L 423.59,490.71 L 422.58,489.93 L 420.35,488.20 L 419.20,487.31 L 416.63,485.35 L 412.33,482.07 L 410.73,480.86 L 407.35,478.12 L 406.55,477.46 L 405.16,476.27 L 403.56,474.82 L 402.75,474.05 L 401.25,472.83 L 400.91,472.57 L 400.36,472.22 L 399.82,472.00 L 399.70,472.00 L 399.31,471.84 L 399.09,471.73 L 398.53,471.38 L 397.94,470.99 L 396.45,469.82 L 395.69,469.19 L 394.12,467.76 L 392.09,465.66 L 391.87,465.40 L 391.08,464.67 L 390.63,464.28 L 389.50,463.36 L 385.50,460.41 L 384.81,459.95 L 383.12,458.73 L 382.25,458.10 L 380.35,456.67 L 379.40,455.95 L 377.53,454.49 L 375.00,452.45 L 373.74,451.41 L 371.61,449.64 L 370.59,448.81 L 368.87,447.39 L 368.06,446.71 L 366.66,445.56 L 365.99,445.02 L 364.80,444.06 L 363.66,443.13 L 361.59,441.49 L 358.04,438.73 L 356.53,437.56 L 353.46,435.08 L 352.75,434.49 L 351.52,433.46 L 350.14,432.25 L 349.47,431.63 L 348.18,430.66 L 347.89,430.46 L 347.40,430.18 L 346.89,430.00 L 346.78,430.00 L 346.09,429.57 L 345.68,429.29 L 344.50,428.38 L 343.87,427.89 L 342.37,426.64 L 339.91,424.50 L 339.06,423.74 L 337.45,422.36 L 336.67,421.71 L 335.30,420.62 L 334.66,420.12 L 333.70,419.43 L 332.87,419.00 L 332.63,419.00 L 331.72,418.49 L 330.17,417.25 L 329.84,416.94 L 328.92,416.11 L 328.42,415.67 L 327.21,414.64 L 325.95,413.57 L 322.87,411.06 L 321.28,409.78 L 318.01,407.20 L 313.50,403.78 L 312.99,403.41 L 311.66,402.37 L 310.95,401.81 L 309.33,400.50 L 307.65,399.13 L 303.98,396.04 L 303.08,395.27 L 301.35,393.78 L 300.52,393.05 L 299.02,391.73 L 298.31,391.10 L 297.17,390.04 L 296.00,388.89 L 295.66,388.52 L 294.81,387.42 L 294.37,386.82 L 293.42,385.41 L 290.73,380.84 L 290.11,379.64 L 289.25,377.68 L 288.88,376.72 L 288.42,374.73 L 288.23,373.67 L 288.06,370.99 L 288.03,370.24 L 288.00,368.50 L 287.98,365.43 L 288.00,355.37 L 293.21,346.63 L 294.24,344.89 L 296.15,342.01 L 297.10,340.64 L 299.08,338.20 L 300.12,337.00 L 302.52,334.62 L 306.96,330.67 L 308.13,329.67 L 310.47,327.73 L 311.62,326.79 L 313.72,325.09 L 314.73,324.29 L 316.36,323.03 L 316.72,322.75 L 317.32,322.31 L 318.00,321.84 L 318.69,321.40 L 320.60,319.93 L 323.34,317.59 L 323.73,317.22 L 324.88,316.23 L 325.51,315.70 L 327.00,314.49 L 331.83,310.76 L 333.39,309.61 L 336.42,307.20 L 337.11,306.63 L 338.27,305.65 L 339.49,304.52 L 339.77,304.23 L 340.59,303.51 L 341.03,303.12 L 342.09,302.27 L 345.50,299.78 L 346.05,299.41 L 347.41,298.42 L 348.11,297.89 L 349.64,296.69 L 353.96,293.05 L 354.58,292.49 L 355.75,291.48 L 356.31,290.99 L 357.30,290.19 L 357.76,289.82 L 358.46,289.32 L 359.06,289.00 L 359.22,289.00 L 359.90,288.61 L 360.30,288.36 L 361.48,287.44 L 362.14,286.92 L 363.84,285.47 L 367.00,282.66 L 367.34,282.35 L 368.35,281.52 L 368.89,281.08 L 370.16,280.08 L 374.25,277.03 L 374.90,276.57 L 376.09,275.67 L 376.66,275.24 L 377.60,274.46 L 378.04,274.10 L 378.63,273.53 L 379.00,273.01 L 379.00,272.93 L 379.30,272.60 L 379.49,272.41 L 380.10,271.93 L 382.75,270.24 L 383.27,269.94 L 384.57,269.06 L 385.25,268.58 L 386.75,267.43 L 391.09,263.67 L 392.35,262.45 L 394.92,260.35 L 395.52,259.89 L 396.54,259.20 L 397.68,258.60 L 397.96,258.51 L 398.77,258.04 L 399.20,257.76 L 400.24,256.97 L 403.59,253.94 L 404.67,252.83 L 407.09,250.69 L 407.67,250.20 L 408.72,249.39 L 410.00,248.54 L 410.69,248.16 L 412.35,247.02 L 414.50,245.29 L 414.77,245.03 L 415.75,244.21 L 416.29,243.76 L 417.67,242.67 L 422.49,238.99 L 424.14,237.78 L 427.32,235.27 L 428.04,234.68 L 429.24,233.67 L 430.49,232.52 L 430.77,232.23 L 431.59,231.51 L 432.03,231.13 L 433.09,230.28 L 436.50,227.81 L 437.60,227.08 L 440.27,225.03 L 440.92,224.51 L 442.15,223.47 L 443.72,222.06 L 444.44,221.37 L 445.86,220.27 L 446.58,219.78 L 448.01,219.08 L 448.73,218.78 L 450.20,218.49 L 450.94,218.39 L 452.46,218.50 L 453.23,218.61 L 454.83,219.13 L 455.64,219.44 L 457.35,220.37 L 458.22,220.88 L 460.06,222.23 L 462.99,224.72 L 463.67,225.34 L 465.63,226.75 L 468.49,228.44 L 469.32,228.84 L 471.17,230.22 L 473.39,232.45 L 473.91,233.15 L 475.00,234.25 L 475.25,234.48 L 475.70,234.80 L 476.21,235.00 L 476.47,235.00 L 477.25,235.37 L 478.43,236.25 L 478.61,236.42 L 479.26,237.01 L 479.63,237.33 L 480.56,238.14 L 483.86,240.93 L 484.44,241.40 L 485.39,242.23 L 485.83,242.63 L 486.53,243.33 L 487.17,244.01 L 487.74,245.09 L 487.91,245.60 L 487.61,246.54 L 486.25,248.03 L 485.07,249.02 L 483.03,250.74 L 482.05,251.56 L 480.39,252.94 L 479.61,253.60 L 478.29,254.68 L 477.67,255.18 L 476.66,256.00 L 476.19,256.37 L 475.44,256.94 L 475.10,257.20 L 474.59,257.56 L 473.72,258.00 L 473.63,258.00 L 473.24,258.22 L 473.02,258.36 L 472.42,258.81 L 470.21,260.75 L 469.81,261.14 L 468.68,262.14 L 468.07,262.68 L 466.61,263.92 L 465.08,265.21 L 461.47,268.14 L 459.64,269.60 L 456.04,272.38 L 455.19,273.03 L 453.62,274.19 L 451.60,275.64 L 451.17,275.93 L 450.00,276.83 L 449.38,277.32 L 447.95,278.50 L 443.52,282.39 L 442.84,283.02 L 441.53,284.18 L 440.90,284.73 L 439.79,285.65 L 439.27,286.06 L 438.49,286.64 L 437.81,287.00 L 437.71,287.00 L 437.04,287.43 L 436.64,287.71 L 435.48,288.62 L 434.86,289.11 L 433.36,290.36 L 430.91,292.50 L 430.06,293.26 L 428.46,294.64 L 427.69,295.29 L 426.35,296.38 L 425.72,296.88 L 424.79,297.57 L 424.03,298.00 L 423.93,298.00 L 423.52,298.20 L 423.29,298.33 L 422.67,298.75 L 420.41,300.57 L 420.01,300.92 L 418.80,301.93 L 418.15,302.47 L 416.59,303.74 L 411.50,307.77 L 410.67,308.41 L 409.13,309.61 L 408.39,310.20 L 407.12,311.21 L 406.53,311.68 L 405.67,312.38 L 405.00,312.96 L 404.93,313.03 L 404.22,313.64 L 403.78,314.01 L 402.45,315.11 L 401.73,315.70 L 399.97,317.13 L 397.04,319.50 L 396.01,320.33 L 394.00,321.97 L 393.02,322.77 L 391.24,324.25 L 390.40,324.95 L 389.07,326.10 L 387.79,327.25 L 387.30,327.73 L 386.27,328.49 L 385.14,329.00 L 385.02,329.00 L 384.50,329.28 L 384.21,329.47 L 383.41,330.06 L 380.47,332.60 L 379.94,333.09 L 378.55,334.32 L 377.81,334.96 L 376.14,336.35 L 371.08,340.31 L 369.55,341.44 L 366.56,343.85 L 365.87,344.42 L 364.72,345.42 L 363.51,346.58 L 362.95,347.17 L 361.14,348.68 L 358.28,350.69 L 357.72,351.03 L 356.34,352.04 L 355.62,352.58 L 354.01,353.91 L 352.37,355.30 L 348.97,358.49 L 348.15,359.27 L 346.66,360.79 L 345.95,361.53 L 344.76,362.85 L 344.22,363.48 L 343.47,364.47 L 343.00,365.46 L 343.00,365.82 L 343.73,366.86 L 345.48,368.40 L 345.83,368.62 L 346.83,369.38 L 347.36,369.80 L 348.64,370.86 L 352.73,374.50 L 353.39,375.11 L 354.67,376.23 L 355.29,376.77 L 356.42,377.66 L 356.95,378.06 L 357.78,378.62 L 358.58,378.98 L 358.73,378.99 L 359.48,379.42 L 359.92,379.70 L 361.13,380.61 L 361.78,381.11 L 363.29,382.36 L 365.74,384.50 L 366.57,385.26 L 368.16,386.64 L 368.93,387.30 L 370.28,388.39 L 370.90,388.89 L 371.85,389.58 L 372.66,390.02 L 372.77,390.02 L 373.30,390.31 L 373.60,390.49 L 374.43,391.08 L 377.50,393.59 L 378.05,394.08 L 379.53,395.34 L 380.31,396.00 L 382.09,397.46 L 387.50,401.78 L 388.32,402.41 L 389.89,403.67 L 390.65,404.29 L 391.97,405.43 L 392.59,405.96 L 393.52,406.83 L 394.30,407.70 L 394.52,408.06 L 395.18,408.62 L 396.19,409.00 L 396.34,409.00 L 397.11,409.43 L 397.55,409.71 L 398.80,410.62 L 399.46,411.11 L 401.02,412.36 L 403.54,414.50 L 404.40,415.26 L 406.05,416.64 L 406.85,417.29 L 408.25,418.38 L 408.91,418.88 L 409.91,419.57 L 410.79,420.00 L 410.92,420.00 L 411.47,420.30 L 411.78,420.50 L 412.61,421.13 L 415.63,423.84 L 416.16,424.37 L 417.48,425.56 L 418.17,426.17 L 419.67,427.41 L 420.42,428.02 L 421.91,429.16 L 423.93,430.59 L 424.54,430.99 L 426.01,432.06 L 426.77,432.62 L 428.40,433.89 L 429.22,434.54 L 430.81,435.87 L 432.93,437.75 L 433.56,438.33 L 434.75,439.40 L 435.33,439.91 L 436.35,440.75 L 436.82,441.14 L 437.54,441.66 L 438.15,442.00 L 438.25,442.00 L 438.99,442.49 L 439.45,442.81 L 440.79,443.84 L 441.52,444.40 L 443.28,445.82 L 446.20,448.25 L 448.23,449.97 L 452.39,453.40 L 453.35,454.19 L 455.02,455.54 L 456.89,457.00 L 458.42,458.16 L 461.80,460.79 L 463.49,462.11 L 466.80,464.75 L 468.40,466.03 L 471.13,468.27 L 471.75,468.79 L 472.79,469.67 L 473.99,470.73 L 474.67,471.35 L 476.06,472.33 L 476.39,472.54 L 476.94,472.82 L 477.55,473.00 L 477.70,473.00 L 478.20,473.24 L 478.48,473.40 L 479.17,473.91 L 481.56,476.08 L 481.97,476.51 L 483.10,477.56 L 483.70,478.12 L 485.11,479.32 L 489.50,482.75 L 490.88,483.74 L 493.33,485.62 L 493.87,486.05 L 494.72,486.75 L 495.50,487.47 L 495.64,487.63 L 496.36,488.26 L 496.79,488.62 L 497.97,489.58 L 498.60,490.08 L 500.09,491.23 L 502.50,493.05 L 503.32,493.66 L 504.87,494.83 L 505.62,495.40 L 506.90,496.40 L 507.49,496.87 L 508.36,497.59 L 509.05,498.23 L 509.12,498.33 L 509.63,498.77 L 509.93,499.03 L 510.79,499.71 L 514.23,502.26 L 514.87,502.71 L 516.34,503.83 L 517.10,504.41 L 518.68,505.68 L 519.47,506.31 L 520.96,507.57 L 522.89,509.28 L 523.99,510.30 L 525.96,511.91 L 526.40,512.24 L 527.08,512.71 L 527.71,513.00 L 527.82,513.00 L 528.45,513.39 L 528.82,513.65 L 529.88,514.46 L 530.45,514.91 L 531.80,516.04 L 534.00,517.97 L 534.76,518.65 L 536.19,519.90 L 536.89,520.49 L 538.10,521.48 L 538.66,521.94 L 539.51,522.56 L 540.22,522.97 L 540.32,522.97 L 541.04,523.43 L 541.47,523.73 L 542.73,524.68 L 543.41,525.21 L 545.04,526.52 L 547.72,528.76 L 549.59,530.34 L 553.68,533.69 L 554.66,534.48 L 556.41,535.86 L 558.50,537.45 L 559.60,538.26 L 561.47,539.70 L 561.88,540.02 L 562.49,540.52 L 563.00,540.97 L 563.07,541.05 L 563.83,541.70 L 564.29,542.09 L 565.70,543.23 L 566.47,543.86 L 568.35,545.36 L 571.50,547.86 L 573.48,549.42 L 577.08,552.26 L 578.83,553.64 L 582.00,556.14 L 583.54,557.36 L 586.34,559.59 L 587.71,560.67 L 590.20,562.65 L 591.41,563.61 L 593.65,565.40 L 594.75,566.28 L 596.79,567.92 L 602.46,572.50 L 603.47,573.32 L 605.93,575.30 L 607.20,576.32 L 609.91,578.50 L 611.27,579.59 L 613.92,581.70 L 617.46,584.50 L 619.56,586.15 L 623.73,589.55 L 624.69,590.34 L 626.32,591.71 L 628.08,593.25 L 628.90,594.01 L 630.36,595.19 L 630.69,595.44 L 631.19,595.78 L 631.65,596.00 L 631.73,596.00 L 632.13,596.22 L 632.36,596.36 L 633.00,596.81 L 635.43,598.75 L 637.13,600.22 L 640.74,603.23 L 642.60,604.78 L 646.74,608.11 L 647.83,608.97 L 650.14,610.80 L 651.32,611.73 L 653.86,613.71 L 655.16,614.72 L 657.96,616.89 L 662.50,620.37 L 664.42,621.84 L 668.16,624.93 L 669.01,625.65 L 670.43,626.92 L 671.92,628.36 L 672.59,629.09 L 674.00,630.23 L 674.33,630.46 L 674.92,630.79 L 675.59,631.00 L 675.93,631.00 L 676.57,631.22 L 677.17,631.75 L 677.21,631.85 L 677.59,632.27 L 677.83,632.51 L 678.56,633.19 L 678.96,633.56 L 679.97,634.45 L 680.50,634.92 L 681.73,635.96 L 683.00,637.04 L 685.95,639.44 L 690.48,643.00 L 691.28,643.61 L 693.09,645.02 L 694.02,645.75 L 696.01,647.31 L 698.01,648.90 L 702.02,652.12 L 702.97,652.90 L 704.73,654.34 L 705.58,655.03 L 707.01,656.22 L 707.68,656.78 L 708.66,657.62 L 709.50,658.40 L 709.64,658.55 L 710.20,659.04 L 710.53,659.31 L 711.38,659.97 L 714.50,662.18 L 715.05,662.55 L 716.40,663.55 L 717.10,664.07 L 718.62,665.27 L 722.92,668.93 L 723.53,669.49 L 724.70,670.51 L 725.27,671.00 L 726.27,671.81 L 726.75,672.17 L 727.48,672.68 L 728.14,673.00 L 728.28,673.00 L 728.76,673.25 L 729.03,673.41 L 729.69,673.92 L 730.39,674.47 L 732.00,676.02 L 732.79,676.81 L 734.09,678.34 L 734.37,678.69 L 734.75,679.28 L 735.00,679.91 L 735.00,680.05 L 734.72,680.59 L 734.54,680.90 L 733.95,681.72 L 731.42,684.69 L 730.44,685.74 L 728.22,688.42 L 727.69,689.08 L 726.72,690.36 L 725.55,692.03 L 725.23,692.52 L 724.33,693.75 L 723.85,694.40 L 722.71,695.83 L 719.13,699.99 L 718.56,700.60 L 717.52,701.77 L 717.03,702.35 L 716.21,703.37 L 715.84,703.85 L 715.33,704.59 L 715.00,705.28 L 715.00,705.41 L 714.65,706.04 L 714.43,706.41 L 713.72,707.40 L 712.95,708.46 L 710.86,711.04 L 709.79,712.31 L 707.83,714.46 L 707.40,714.92 L 706.71,715.55 L 706.09,715.95 L 706.01,715.94 L 705.67,715.79 L 705.47,715.70 L 704.94,715.41 L 704.38,715.10 M 569.93,511.24 L 569.58,511.00 L 568.70,510.34 L 568.24,509.99 L 567.25,509.17 L 564.43,506.65 L 564.03,506.26 L 562.90,505.28 L 562.29,504.77 L 560.89,503.67 L 556.50,500.50 L 555.12,499.60 L 552.09,497.24 L 551.36,496.65 L 550.06,495.51 L 548.50,494.01 L 547.67,493.14 L 545.53,491.31 L 544.99,490.89 L 543.96,490.15 L 542.59,489.30 L 541.79,488.89 L 539.95,487.68 L 537.69,485.92 L 537.19,485.46 L 536.61,484.78 L 536.40,484.45 L 536.51,483.75 L 536.66,483.36 L 537.62,482.27 L 537.91,481.95 L 538.70,481.19 L 540.16,479.78 L 540.78,479.19 L 542.45,477.70 L 543.33,476.93 L 545.36,475.22 L 546.39,474.36 L 548.53,472.64 L 551.57,470.27 L 553.48,468.83 L 557.20,465.89 L 558.05,465.21 L 559.48,464.04 L 561.00,462.73 L 561.34,462.42 L 562.25,461.67 L 562.72,461.29 L 563.79,460.48 L 567.00,458.28 L 567.96,457.69 L 570.06,456.22 L 570.56,455.86 L 571.45,455.18 L 572.50,454.29 L 572.77,454.04 L 573.79,453.19 L 574.36,452.72 L 575.82,451.55 L 581.00,447.54 L 581.89,446.86 L 583.96,445.27 L 585.01,444.44 L 587.21,442.71 L 588.29,441.85 L 590.35,440.18 L 593.00,438.00 L 593.76,437.36 L 595.61,435.84 L 596.57,435.06 L 598.65,433.39 L 599.69,432.55 L 601.74,430.93 L 604.50,428.79 L 606.15,427.52 L 609.33,424.98 L 610.05,424.39 L 611.26,423.39 L 612.51,422.28 L 613.06,421.75 L 614.40,420.65 L 616.13,419.43 L 616.36,419.30 L 617.04,418.84 L 617.41,418.59 L 618.30,417.95 L 619.23,417.27 L 621.40,415.60 L 622.49,414.75 L 624.57,413.06 L 625.05,412.66 L 625.91,411.93 L 626.95,411.00 L 627.38,410.59 L 628.94,409.38 L 631.52,407.58 L 632.34,407.06 L 634.21,405.71 L 636.50,403.88 L 636.98,403.45 L 638.22,402.38 L 638.56,402.09 L 639.39,401.40 L 639.82,401.04 L 640.85,400.19 L 641.39,399.75 L 642.67,398.70 L 643.34,398.15 L 644.91,396.88 L 645.74,396.20 L 647.65,394.66 L 650.94,392.00 L 651.54,391.52 L 652.99,390.34 L 653.74,389.72 L 655.36,388.40 L 656.17,387.73 L 657.75,386.42 L 659.89,384.65 L 660.89,383.81 L 662.57,382.42 L 663.35,381.76 L 664.66,380.68 L 665.27,380.17 L 666.28,379.35 L 666.76,378.97 L 667.56,378.34 L 668.32,377.75 L 669.52,376.89 L 671.50,375.59 L 672.33,375.07 L 674.43,373.41 L 677.26,370.84 L 678.02,370.06 L 679.50,368.84 L 679.84,368.58 L 680.41,368.22 L 681.01,368.00 L 681.52,368.00 L 682.02,367.62 L 682.19,367.38 L 682.04,366.56 L 681.90,366.10 L 681.17,364.92 L 680.74,364.28 L 679.49,362.80 L 678.81,362.02 L 677.10,360.30 L 676.19,359.42 L 674.08,357.53 L 672.98,356.58 L 670.53,354.60 L 666.55,351.60 L 665.99,351.20 L 664.69,350.23 L 664.03,349.72 L 662.64,348.64 L 661.94,348.09 L 660.63,347.03 L 658.92,345.60 L 658.42,345.17 L 656.90,343.91 L 656.07,343.23 L 654.06,341.60 L 647.42,336.35 L 645.24,334.66 L 641.08,331.32 L 640.13,330.55 L 638.56,329.25 L 636.95,327.85 L 636.60,327.53 L 635.49,326.59 L 634.88,326.08 L 633.40,324.89 L 628.45,321.07 L 626.81,319.85 L 623.60,317.26 L 622.86,316.65 L 621.62,315.57 L 620.30,314.32 L 619.69,313.68 L 618.45,312.68 L 618.16,312.47 L 617.66,312.18 L 617.10,312.00 L 616.97,312.00 L 616.27,311.59 L 615.86,311.32 L 614.74,310.46 L 614.13,309.98 L 612.72,308.79 L 610.44,306.75 L 609.66,306.03 L 608.13,304.67 L 607.39,304.02 L 606.04,302.90 L 605.41,302.37 L 604.41,301.61 L 603.45,301.00 L 603.27,300.93 L 602.52,300.45 L 602.10,300.16 L 600.98,299.33 L 600.39,298.87 L 599.03,297.79 L 596.89,296.00 L 596.17,295.38 L 594.33,293.86 L 593.37,293.07 L 591.24,291.35 L 590.16,290.49 L 588.00,288.80 L 585.01,286.50 L 583.33,285.24 L 579.84,282.55 L 578.05,281.16 L 574.14,278.07 L 572.11,276.45 L 567.51,272.74 L 566.30,271.77 L 563.72,269.66 L 559.55,266.25 L 558.67,265.53 L 556.98,264.21 L 556.17,263.58 L 554.73,262.54 L 554.05,262.07 L 553.03,261.41 L 552.12,261.00 L 551.84,261.00 L 551.17,260.63 L 550.30,259.74 L 550.19,259.57 L 549.56,258.93 L 549.18,258.58 L 548.12,257.66 L 544.00,254.40 L 542.49,253.27 L 539.38,250.89 L 538.66,250.33 L 537.40,249.34 L 536.00,248.20 L 534.86,247.24 L 532.76,245.49 L 531.74,244.65 L 529.87,243.11 L 528.04,241.61 L 524.94,239.15 L 523.47,237.99 L 520.89,236.08 L 517.38,233.61 L 515.97,232.67 L 513.19,230.58 L 512.55,230.08 L 511.47,229.18 L 510.31,228.10 L 510.04,227.82 L 509.15,227.00 L 508.66,226.56 L 507.43,225.53 L 503.24,222.26 L 500.80,220.47 L 496.50,217.25 L 495.48,216.48 L 493.63,215.07 L 492.74,214.39 L 491.17,213.16 L 490.41,212.57 L 489.14,211.55 L 488.55,211.07 L 487.61,210.27 L 487.18,209.91 L 486.61,209.37 L 486.19,208.88 L 486.15,208.77 L 485.66,208.33 L 485.36,208.07 L 484.44,207.39 L 483.95,207.02 L 482.73,206.19 L 480.69,204.86 L 479.26,203.96 L 476.41,201.91 L 475.76,201.42 L 474.64,200.52 L 473.42,199.43 L 473.14,199.13 L 472.26,198.32 L 471.78,197.89 L 470.63,196.91 L 466.83,193.89 L 465.90,193.19 L 463.82,191.60 L 462.75,190.78 L 460.45,188.99 L 458.11,187.17 L 453.19,183.25 L 450.74,181.29 L 446.14,177.54 L 445.05,176.64 L 443.05,174.98 L 440.43,172.75 L 439.55,171.99 L 438.01,170.81 L 437.67,170.56 L 437.15,170.22 L 436.69,170.00 L 436.61,170.00 L 436.18,169.72 L 435.93,169.55 L 435.21,168.97 L 432.43,166.50 L 431.41,165.54 L 429.57,164.03 L 429.16,163.71 L 428.52,163.28 L 427.91,163.00 L 427.80,163.00 L 427.06,162.53 L 426.62,162.22 L 425.35,161.24 L 424.66,160.69 L 423.02,159.33 L 420.34,157.00 L 419.41,156.17 L 417.64,154.67 L 416.79,153.95 L 415.31,152.76 L 414.62,152.22 L 413.58,151.47 L 412.72,151.00 L 412.60,151.00 L 411.99,150.63 L 411.64,150.40 L 410.67,149.63 L 410.14,149.21 L 408.92,148.15 L 406.94,146.35 L 405.59,145.07 L 402.51,142.48 L 401.77,141.88 L 400.42,140.86 L 398.76,139.72 L 397.87,139.18 L 396.31,138.11 L 395.97,137.87 L 395.45,137.46 L 395.00,137.02 L 394.93,136.92 L 394.35,136.37 L 394.00,136.05 L 392.96,135.14 L 392.39,134.66 L 391.02,133.51 L 388.75,131.65 L 386.39,129.74 L 382.04,126.23 L 379.94,124.54 L 376.22,121.55 L 374.45,120.13 L 371.48,117.76 L 370.79,117.21 L 369.57,116.24 L 368.00,115.00 L 365.99,113.42 L 362.12,110.33 L 360.24,108.83 L 356.86,106.08 L 356.06,105.42 L 354.60,104.22 L 353.90,103.64 L 352.67,102.61 L 352.09,102.12 L 351.12,101.29 L 350.01,100.30 L 349.33,99.66 L 347.94,98.67 L 347.62,98.47 L 347.07,98.18 L 346.46,98.00 L 346.32,98.00 L 345.74,97.70 L 345.41,97.51 L 344.55,96.90 L 341.45,94.25 L 340.91,93.73 L 339.56,92.51 L 338.86,91.89 L 337.34,90.58 L 336.57,89.92 L 335.06,88.67 L 333.00,87.02 L 331.76,86.07 L 329.67,84.40 L 329.22,84.04 L 328.55,83.48 L 328.00,82.98 L 327.93,82.90 L 327.29,82.37 L 326.90,82.05 L 325.74,81.12 L 325.10,80.62 L 323.56,79.43 L 321.00,77.47 L 319.21,76.11 L 315.82,73.49 L 315.05,72.89 L 313.79,71.90 L 312.50,70.87 L 312.23,70.64 L 311.29,69.88 L 310.78,69.46 L 309.46,68.40 L 308.08,67.28 L 304.78,64.63 L 303.97,63.97 L 302.38,62.70 L 301.60,62.08 L 300.22,60.97 L 299.56,60.45 L 298.52,59.62 L 297.50,58.82 L 297.36,58.71 L 296.89,58.34 L 296.63,58.13 L 295.97,57.61 L 293.69,55.77 L 290.87,53.49 L 293.69,49.33 L 294.46,48.18 L 296.56,45.41 L 297.08,44.73 L 298.12,43.45 L 299.50,41.83 L 300.33,40.91 L 302.11,38.74 L 302.53,38.22 L 303.27,37.23 L 304.15,36.00 L 304.37,35.66 L 305.01,34.79 L 305.35,34.34 L 306.15,33.35 L 308.67,30.50 L 309.06,30.09 L 310.01,29.02 L 310.50,28.46 L 311.54,27.21 L 314.42,23.50 L 315.18,22.45 L 316.56,20.72 L 317.23,19.91 L 318.43,18.68 L 319.00,18.13 L 319.98,17.43 L 321.18,17.00 L 321.29,17.00 L 321.92,17.39 L 322.29,17.64 L 323.34,18.45 L 323.91,18.89 L 325.24,20.01 L 327.42,21.93 L 328.92,23.28 L 331.94,25.77 L 332.64,26.33 L 333.83,27.22 L 335.15,28.08 L 335.78,28.42 L 337.51,29.62 L 339.97,31.61 L 340.43,32.03 L 341.67,33.11 L 342.33,33.69 L 343.91,35.02 L 345.55,36.39 L 349.36,39.49 L 351.28,41.05 L 355.00,43.98 L 355.88,44.67 L 357.47,45.90 L 359.50,47.41 L 360.60,48.21 L 362.91,50.11 L 363.46,50.57 L 364.41,51.42 L 365.50,52.50 L 365.77,52.80 L 366.60,53.55 L 367.04,53.94 L 368.11,54.80 L 371.58,57.24 L 372.70,57.95 L 375.31,59.90 L 375.95,60.40 L 377.12,61.38 L 378.58,62.70 L 378.98,63.10 L 380.15,64.16 L 380.79,64.71 L 382.29,65.96 L 387.11,69.73 L 388.65,70.86 L 392.06,73.57 L 392.88,74.22 L 394.35,75.45 L 396.11,77.00 L 397.04,77.86 L 399.31,79.65 L 399.87,80.06 L 400.91,80.78 L 402.25,81.60 L 403.01,82.00 L 404.20,82.84 L 404.45,83.03 L 404.80,83.38 L 405.02,83.78 L 405.03,83.88 L 405.42,84.33 L 405.68,84.60 L 406.49,85.32 L 406.94,85.70 L 408.07,86.58 L 410.00,88.00 L 410.68,88.48 L 411.93,89.42 L 412.52,89.87 L 413.51,90.69 L 413.96,91.08 L 414.58,91.68 L 414.98,92.25 L 414.98,92.46 L 415.30,92.78 L 416.05,93.00 L 416.19,93.00 L 416.63,93.18 L 416.87,93.30 L 417.43,93.68 L 419.30,95.32 L 419.60,95.64 L 420.59,96.55 L 421.13,97.04 L 422.47,98.17 L 427.00,101.76 L 428.51,102.89 L 431.88,105.57 L 432.68,106.22 L 434.14,107.43 L 435.89,108.94 L 436.82,109.78 L 438.56,111.10 L 438.96,111.38 L 439.60,111.76 L 440.25,112.00 L 440.39,112.00 L 440.94,112.31 L 441.25,112.51 L 442.07,113.16 L 445.08,115.96 L 445.60,116.50 L 446.91,117.72 L 447.58,118.33 L 449.05,119.57 L 449.78,120.19 L 451.23,121.31 L 453.20,122.71 L 454.38,123.48 L 456.91,125.40 L 457.51,125.88 L 458.57,126.79 L 459.81,127.96 L 460.13,128.30 L 461.09,129.20 L 461.61,129.68 L 462.86,130.74 L 466.94,133.96 L 469.15,135.59 L 473.44,138.84 L 475.54,140.43 L 479.29,143.38 L 480.18,144.09 L 481.78,145.39 L 482.55,146.01 L 483.88,147.13 L 484.51,147.66 L 485.51,148.55 L 486.61,149.59 L 486.90,149.90 L 487.73,150.65 L 488.18,151.04 L 489.24,151.89 L 492.61,154.31 L 493.68,155.00 L 496.09,156.78 L 496.67,157.22 L 497.72,158.06 L 499.00,159.17 L 500.22,160.32 L 502.40,162.04 L 503.47,162.82 L 505.54,163.89 L 506.59,164.36 L 508.80,164.89 L 512.56,165.21 L 514.09,165.23 L 516.97,164.86 L 518.38,164.60 L 521.06,163.67 L 522.39,163.13 L 524.96,161.61 L 528.75,158.63 L 529.69,157.77 L 531.63,156.16 L 532.08,155.80 L 532.86,155.21 L 533.73,154.62 L 534.15,154.38 L 535.44,153.48 L 537.39,151.97 L 538.20,151.29 L 540.04,149.77 L 540.99,148.98 L 543.01,147.33 L 545.07,145.66 L 549.27,142.31 L 550.29,141.50 L 552.22,139.99 L 553.15,139.26 L 554.82,137.96 L 555.62,137.35 L 556.92,136.37 L 558.34,135.35 L 558.77,135.05 L 559.91,134.19 L 560.51,133.73 L 561.84,132.63 L 565.83,129.10 L 566.43,128.54 L 567.55,127.51 L 568.10,127.02 L 569.04,126.20 L 569.47,125.83 L 570.12,125.32 L 570.65,125.00 L 570.73,125.00 L 571.15,124.78 L 571.40,124.64 L 572.09,124.18 L 572.83,123.67 L 574.85,122.15 L 575.91,121.34 L 578.12,119.54 L 581.06,117.00 L 582.10,116.04 L 583.73,114.60 L 584.49,113.96 L 585.64,113.06 L 586.17,112.68 L 586.97,112.24 L 587.91,112.00 L 588.18,112.00 L 588.84,111.62 L 589.70,110.72 L 589.81,110.55 L 590.37,109.95 L 590.69,109.63 L 591.59,108.80 L 595.00,105.98 L 596.24,105.03 L 598.28,103.31 L 598.71,102.93 L 599.35,102.32 L 599.83,101.76 L 599.92,101.55 L 600.35,101.22 L 601.13,101.00 L 601.26,101.00 L 601.68,100.82 L 601.91,100.70 L 602.46,100.32 L 604.30,98.68 L 604.60,98.36 L 605.59,97.45 L 606.13,96.96 L 607.47,95.81 L 612.00,92.16 L 612.76,91.59 L 614.70,90.10 L 615.73,89.32 L 618.00,87.59 L 619.15,86.71 L 621.47,84.94 L 624.70,82.48 L 625.69,81.73 L 627.56,80.24 L 628.46,79.52 L 630.02,78.21 L 630.75,77.59 L 631.82,76.60 L 632.70,75.64 L 632.81,75.46 L 633.37,74.90 L 633.69,74.59 L 634.59,73.87 L 638.00,71.51 L 638.62,71.12 L 640.12,70.08 L 640.90,69.53 L 642.56,68.26 L 643.40,67.61 L 645.02,66.27 L 647.21,64.36 L 647.85,63.76 L 649.10,62.67 L 649.71,62.15 L 650.78,61.28 L 651.28,60.89 L 652.05,60.34 L 652.75,60.00 L 652.87,60.00 L 653.40,59.70 L 653.71,59.51 L 654.55,58.90 L 657.70,56.25 L 658.33,55.68 L 659.79,54.40 L 660.54,53.74 L 662.19,52.36 L 663.86,50.97 L 667.36,48.16 L 668.22,47.49 L 669.87,46.22 L 670.67,45.61 L 672.13,44.52 L 672.83,44.01 L 674.02,43.18 L 675.40,42.30 L 675.69,42.14 L 676.64,41.44 L 677.16,41.04 L 678.46,39.97 L 682.86,36.05 L 683.60,35.36 L 685.02,34.09 L 685.70,33.49 L 686.91,32.48 L 687.48,32.03 L 688.34,31.40 L 689.11,31.00 L 689.33,31.00 L 690.23,30.52 L 690.75,30.20 L 692.16,29.12 L 692.92,28.52 L 694.77,26.92 L 697.94,24.00 L 698.80,23.18 L 700.62,21.68 L 701.53,20.96 L 703.27,19.77 L 704.12,19.22 L 705.58,18.48 L 707.24,18.00 L 707.60,18.00 L 708.58,18.56 L 709.09,18.91 L 710.15,19.91 L 710.66,20.43 L 711.46,21.53 L 712.00,22.91 L 712.00,23.03 L 712.30,23.60 L 712.50,23.92 L 713.13,24.81 L 715.86,28.15 L 716.39,28.75 L 717.74,30.31 L 718.45,31.14 L 720.00,32.98 L 724.54,38.50 L 725.20,39.32 L 726.46,40.87 L 727.07,41.61 L 728.12,42.88 L 728.62,43.47 L 729.36,44.33 L 729.98,45.00 L 730.16,45.14 L 730.64,45.66 L 730.90,45.95 L 731.52,46.70 L 732.15,47.50 L 733.52,49.41 L 734.18,50.37 L 735.26,52.09 L 735.48,52.47 L 735.80,53.08 L 736.00,53.66 L 736.00,53.79 L 735.70,54.21 L 735.51,54.44 L 734.90,54.98 L 732.25,56.80 L 731.73,57.10 L 730.40,58.00 L 729.70,58.49 L 728.13,59.66 L 723.50,63.48 L 722.81,64.10 L 721.50,65.23 L 720.87,65.77 L 719.76,66.66 L 719.25,67.07 L 718.47,67.63 L 717.80,67.99 L 717.71,67.99 L 717.31,68.20 L 717.08,68.34 L 716.49,68.77 L 714.30,70.63 L 713.92,70.99 L 712.82,71.94 L 712.23,72.45 L 710.85,73.59 L 706.50,77.01 L 705.12,78.04 L 702.09,80.45 L 701.36,81.03 L 700.06,82.11 L 698.50,83.45 L 697.67,84.20 L 695.89,85.56 L 695.47,85.86 L 694.72,86.35 L 693.83,86.82 L 693.60,86.92 L 692.80,87.45 L 692.36,87.77 L 691.23,88.66 L 687.30,92.11 L 685.96,93.38 L 682.99,95.82 L 682.28,96.38 L 681.00,97.30 L 679.45,98.27 L 679.04,98.48 L 678.02,99.15 L 677.48,99.52 L 676.32,100.42 L 672.98,103.44 L 672.03,104.44 L 669.42,106.63 L 668.77,107.16 L 667.48,108.10 L 665.75,109.22 L 664.72,109.81 L 663.10,110.93 L 662.76,111.18 L 662.30,111.60 L 662.00,112.02 L 662.00,112.11 L 661.58,112.56 L 661.32,112.82 L 660.45,113.54 L 659.98,113.93 L 658.78,114.83 L 656.74,116.29 L 655.29,117.29 L 652.01,119.89 L 651.22,120.54 L 649.79,121.80 L 648.04,123.46 L 647.10,124.43 L 645.28,125.96 L 644.87,126.28 L 644.19,126.72 L 643.47,127.00 L 643.32,127.00 L 642.55,127.43 L 642.11,127.71 L 640.89,128.62 L 640.23,129.11 L 638.71,130.36 L 636.26,132.50 L 635.43,133.26 L 633.83,134.64 L 633.06,135.29 L 631.71,136.38 L 631.08,136.88 L 630.12,137.57 L 629.29,138.00 L 629.17,138.00 L 628.52,138.38 L 628.13,138.62 L 627.06,139.41 L 626.49,139.84 L 625.14,140.93 L 622.95,142.78 L 622.20,143.44 L 620.48,144.91 L 619.60,145.66 L 617.78,147.18 L 616.88,147.93 L 615.18,149.31 L 613.00,151.03 L 611.76,151.98 L 608.86,154.33 L 608.16,154.91 L 606.86,156.01 L 605.24,157.41 L 604.34,158.22 L 602.23,159.94 L 601.72,160.35 L 600.77,161.08 L 599.58,161.92 L 599.08,162.25 L 597.77,163.18 L 597.08,163.68 L 595.50,164.86 L 593.87,166.09 L 590.30,168.89 L 588.54,170.29 L 585.45,172.86 L 584.75,173.45 L 583.60,174.45 L 582.39,175.59 L 582.10,175.90 L 581.27,176.64 L 580.82,177.03 L 579.76,177.88 L 576.39,180.27 L 575.32,180.95 L 572.86,182.76 L 572.26,183.21 L 571.17,184.09 L 569.82,185.26 L 569.45,185.61 L 568.32,186.60 L 567.70,187.12 L 566.21,188.36 L 561.32,192.27 L 559.72,193.50 L 556.64,196.07 L 555.94,196.67 L 554.78,197.71 L 553.58,198.90 L 553.11,199.42 L 552.52,200.16 L 552.28,200.49 L 552.18,201.01 L 552.20,201.27 L 552.60,201.84 L 553.79,203.02 L 554.37,203.56 L 555.53,204.42 L 556.73,205.00 L 556.84,205.00 L 557.62,205.51 L 558.10,205.84 L 559.47,206.91 L 560.21,207.50 L 561.99,208.98 L 564.92,211.50 L 565.94,212.39 L 567.85,214.02 L 568.78,214.80 L 570.37,216.09 L 571.11,216.68 L 572.20,217.49 L 573.09,218.00 L 573.19,218.00 L 573.85,218.43 L 574.23,218.71 L 575.34,219.61 L 575.94,220.11 L 577.36,221.36 L 579.68,223.49 L 580.48,224.24 L 582.03,225.62 L 582.78,226.27 L 584.12,227.36 L 584.75,227.86 L 585.73,228.55 L 586.63,228.99 L 586.94,228.99 L 587.82,229.48 L 589.11,230.63 L 589.26,230.82 L 589.70,231.26 L 589.94,231.50 L 590.62,232.11 L 591.00,232.45 L 592.02,233.29 L 592.58,233.74 L 594.02,234.89 L 594.80,235.51 L 596.75,237.03 L 597.80,237.84 L 600.35,239.80 L 601.71,240.84 L 604.95,243.31 L 610.69,247.67 L 612.20,248.82 L 615.49,251.45 L 616.28,252.08 L 617.68,253.25 L 619.34,254.67 L 620.21,255.45 L 622.45,257.24 L 623.01,257.67 L 624.09,258.46 L 625.50,259.43 L 626.32,259.95 L 628.35,261.44 L 631.00,263.60 L 631.46,264.01 L 632.74,265.11 L 633.43,265.70 L 635.10,267.10 L 635.98,267.83 L 637.99,269.47 L 639.03,270.31 L 641.30,272.14 L 643.61,273.99 L 648.72,278.02 L 656.50,284.06 L 658.03,285.23 L 660.88,287.42 L 662.27,288.49 L 664.89,290.51 L 667.46,292.50 L 672.10,296.12 L 685.18,306.50 L 686.21,307.32 L 688.89,309.46 L 690.31,310.58 L 693.48,313.09 L 695.10,314.36 L 698.37,316.92 L 702.97,320.50 L 705.81,322.70 L 711.47,327.25 L 712.78,328.31 L 715.00,330.15 L 715.50,330.58 L 716.37,331.32 L 717.40,332.23 L 718.53,333.25 L 720.81,335.04 L 721.34,335.43 L 722.25,336.02 L 723.25,336.55 L 723.73,336.71 L 724.49,337.24 L 725.00,338.07 L 725.00,338.32 L 725.37,338.73 L 726.27,339.00 L 726.42,339.00 L 726.96,339.39 L 727.26,339.64 L 728.00,340.44 L 728.79,341.31 L 730.60,343.74 L 731.49,344.98 L 732.97,347.36 L 733.28,347.91 L 733.72,348.82 L 734.00,349.79 L 734.00,349.91 L 734.13,350.39 L 734.21,350.67 L 734.48,351.38 L 735.62,353.94 L 735.85,354.40 L 736.21,355.78 L 736.38,356.53 L 736.62,358.37 L 736.82,360.28 L 736.86,364.77 L 736.83,367.02 L 736.40,371.15 L 736.26,372.10 L 735.91,373.71 L 735.25,375.50 L 734.95,376.05 L 734.30,377.35 L 733.57,379.00 L 733.40,379.42 L 732.91,380.40 L 732.64,380.90 L 731.96,382.03 L 731.22,383.19 L 729.27,385.87 L 728.23,387.24 L 725.82,390.17 L 724.57,391.65 L 721.89,394.63 L 720.53,396.11 L 717.78,398.92 L 716.41,400.28 L 713.80,402.71 L 712.52,403.85 L 710.23,405.67 L 709.69,406.08 L 708.70,406.74 L 707.39,407.48 L 706.96,407.69 L 705.92,408.34 L 705.39,408.70 L 704.26,409.56 L 701.20,412.42 L 700.79,412.90 L 699.69,413.97 L 699.11,414.52 L 697.80,415.65 L 693.84,418.58 L 693.25,418.96 L 691.84,419.94 L 691.12,420.46 L 689.60,421.63 L 688.85,422.23 L 687.40,423.44 L 685.51,425.15 L 684.41,426.21 L 682.51,427.87 L 682.10,428.22 L 681.46,428.70 L 680.91,429.00 L 680.83,429.00 L 680.49,429.16 L 680.29,429.27 L 679.78,429.61 L 677.90,431.06 L 677.24,431.63 L 675.54,433.09 L 673.24,435.06 L 672.62,435.59 L 671.43,436.44 L 671.16,436.62 L 670.71,436.86 L 670.24,437.03 L 670.14,437.03 L 669.57,437.40 L 669.23,437.63 L 668.28,438.39 L 667.76,438.80 L 666.56,439.84 L 664.59,441.62 L 663.24,442.87 L 660.07,445.50 L 659.30,446.12 L 657.87,447.21 L 656.09,448.45 L 655.10,449.08 L 652.82,450.79 L 652.27,451.22 L 651.25,452.06 L 650.00,453.19 L 649.66,453.53 L 648.56,454.50 L 647.95,455.02 L 646.47,456.23 L 641.50,460.08 L 640.67,460.68 L 639.09,461.88 L 638.32,462.47 L 636.97,463.53 L 636.33,464.03 L 635.36,464.83 L 634.50,465.61 L 634.36,465.77 L 633.64,466.39 L 633.21,466.75 L 632.03,467.69 L 631.40,468.19 L 629.91,469.32 L 627.50,471.11 L 625.85,472.32 L 622.87,474.58 L 622.21,475.10 L 621.16,475.93 L 620.16,476.77 L 619.98,476.94 L 619.36,477.47 L 619.01,477.76 L 618.14,478.46 L 615.16,480.75 L 614.16,481.49 L 611.93,483.33 L 611.40,483.78 L 610.44,484.64 L 609.30,485.73 L 608.69,486.35 L 607.55,487.33 L 607.29,487.54 L 606.86,487.82 L 606.43,488.00 L 606.30,488.00 L 605.60,488.41 L 605.19,488.66 L 604.06,489.48 L 603.45,489.93 L 602.05,491.02 L 601.33,491.58 L 599.83,492.81 L 599.09,493.42 L 597.67,494.63 L 596.98,495.23 L 595.80,496.29 L 595.26,496.79 L 594.50,497.57 L 594.00,498.25 L 594.00,498.46 L 593.66,498.78 L 592.85,499.00 L 592.73,499.00 L 592.26,499.20 L 592.00,499.33 L 591.29,499.76 L 590.52,500.23 L 588.49,501.71 L 587.42,502.50 L 585.10,504.38 L 581.75,507.30 L 581.19,507.82 L 579.60,509.06 L 578.76,509.70 L 576.99,510.93 L 576.12,511.51 L 574.64,512.40 L 574.32,512.58 L 573.80,512.84 L 573.29,512.99 L 573.18,512.99 L 572.78,512.85 L 572.56,512.76 L 571.98,512.48 L 571.37,512.16 Z" fill="rgba(255,255,255,1)"/>
</g>
</svg>